<svg xmlns="http://www.w3.org/2000/svg" width="41.115" height="41.18" viewBox="0 0 41.115 41.18">
  <g id="Turnos_Home" data-name="Turnos Home" transform="translate(-180 -1576.767)">
    <g id="Grupo_165904" data-name="Grupo 165904" transform="translate(-194.255 135.943)">
      <path id="Trazado_85971" data-name="Trazado 85971" d="M797.493,162.678v-34.1a.383.383,0,0,0,.07-.092,2.4,2.4,0,0,1,2.573-1.837h1.05c0-.2.006-.344,0-.489a2.54,2.54,0,0,1,1.927-2.729h.963a1.234,1.234,0,0,0,.17.088A2.4,2.4,0,0,1,806,125.955c0,.222,0,.445,0,.664h4.817c0-.173.006-.318,0-.463a2.539,2.539,0,0,1,1.927-2.727h.963a1.238,1.238,0,0,0,.17.088,2.4,2.4,0,0,1,1.756,2.438c0,.222,0,.445,0,.664h4.817c0-.173.006-.318,0-.463a2.539,2.539,0,0,1,1.927-2.727h.963a1.231,1.231,0,0,0,.17.088,2.4,2.4,0,0,1,1.756,2.438c0,.222,0,.445,0,.664h4.817c0-.173.006-.318,0-.463a2.539,2.539,0,0,1,1.927-2.727h.963a1.239,1.239,0,0,0,.17.088,2.4,2.4,0,0,1,1.755,2.443c0,.222,0,.444,0,.687.389,0,.723.02,1.054,0a2.509,2.509,0,0,1,2.654,2.645c-.035,6.938-.015,13.877-.015,20.815q0,6.007,0,12.015a2.372,2.372,0,0,1-1.419,2.277c-.164.081-.338.143-.507.214H799.42c-.192-.082-.386-.159-.576-.246a2.679,2.679,0,0,1-1.351-1.684m1.618-27.489c-.006.1-.012.153-.012.206q0,13.289,0,26.579c0,.736.322,1.026,1.116,1.026h35.637c.847,0,1.135-.286,1.135-1.129q0-13.129,0-26.257v-.425Zm30.978-6.906h-8.033c0,.282,0,.536,0,.789.007.658.22.911.869,1.036a.805.805,0,0,1,.73.891.817.817,0,0,1-.911.711,2.408,2.408,0,0,1-2.287-2.264c-.015-.384,0-.77,0-1.167h-8.032c0,.29,0,.556,0,.821a.878.878,0,0,0,.856,1.007.805.805,0,0,1,.743.88.814.814,0,0,1-.9.723,2.406,2.406,0,0,1-2.3-2.252c-.016-.4,0-.792,0-1.184h-8.032c0,.244,0,.468,0,.693,0,.778.17.987.925,1.147a.8.8,0,0,1-.132,1.6,2.406,2.406,0,0,1-2.394-2.321c-.01-.37,0-.74,0-1.136-.4,0-.744,0-1.09,0-.682.01-.994.328-1,1.022-.005.791,0,1.582,0,2.372v1.89h37.887c0-1.5.015-2.968-.008-4.439-.008-.542-.357-.83-.925-.843-.521-.012-1.043,0-1.565,0h-2.8c0,.288,0,.539,0,.79,0,.688.209.934.881,1.065a.807.807,0,0,1,.717.9.816.816,0,0,1-.882.7,2.406,2.406,0,0,1-2.313-2.237c-.018-.387,0-.775,0-1.191m-25.7-1.656c-.007-.54.154-1.1-.408-1.461a.692.692,0,0,0-.856.061c-.462.386-.315.907-.316,1.4Zm9.649,0c-.037-.561.14-1.142-.449-1.48a.7.7,0,0,0-.823.069c-.472.383-.319.906-.328,1.411Zm9.636,0c-.046-.544.137-1.108-.415-1.458a.7.7,0,0,0-.857.044c-.476.379-.323.905-.331,1.414Zm9.631-.006c-.044-.536.146-1.11-.429-1.462a.7.7,0,0,0-.857.065c-.456.388-.319.906-.308,1.4Z" transform="translate(-423.238 1317.395)" fill="#05294f"/>
      <path id="Trazado_85972" data-name="Trazado 85972" d="M867.371,357.464c-1.016,0-2.032,0-3.048,0-.66,0-.961-.3-.962-.948q0-3.075,0-6.149a.821.821,0,0,1,.925-.943q3.089,0,6.177,0a.813.813,0,0,1,.921.907q.006,3.115,0,6.23a.814.814,0,0,1-.925.9c-1.03,0-2.059,0-3.089,0m2.382-6.4h-4.767v4.777h4.767Z" transform="translate(-483.809 1109.58)" fill="#05294f"/>
      <path id="Trazado_85973" data-name="Trazado 85973" d="M1011.115,353.488c0,1,0,2.01,0,3.014,0,.662-.3.965-.943.966q-3.069,0-6.137,0c-.648,0-.943-.3-.944-.965q0-3.055,0-6.109c0-.678.294-.966.984-.966q3.028,0,6.057,0c.7,0,.983.29.985,1.006q0,1.527,0,3.055m-1.633-2.421h-4.768v4.777h4.768Z" transform="translate(-612.299 1109.574)" fill="#05294f"/>
      <path id="Trazado_85974" data-name="Trazado 85974" d="M1142.814,353.4c0-1.018,0-2.036,0-3.055a.814.814,0,0,1,.9-.924q3.109-.006,6.218,0a.8.8,0,0,1,.9.885q.007,3.135,0,6.27a.805.805,0,0,1-.9.883q-3.109.006-6.217,0a.814.814,0,0,1-.9-.926c0-1.045,0-2.09,0-3.135m6.393-2.34h-4.767v4.777h4.767Z" transform="translate(-740.785 1109.582)" fill="#05294f"/>
      <path id="Trazado_85975" data-name="Trazado 85975" d="M871.385,473.443c0,1.018,0,2.036,0,3.054,0,.661-.3.963-.946.964q-3.069,0-6.137,0a.821.821,0,0,1-.942-.927q0-3.095,0-6.189a.813.813,0,0,1,.9-.923q3.109-.006,6.217,0a.815.815,0,0,1,.9.926c0,1.032,0,2.063,0,3.095m-1.623-2.387h-4.767v4.777h4.767Z" transform="translate(-483.807 999.233)" fill="#05294f"/>
      <path id="Trazado_85976" data-name="Trazado 85976" d="M1011.115,473.443c0,1.032,0,2.063,0,3.095a.823.823,0,0,1-.938.93q-3.069,0-6.137,0c-.653,0-.948-.3-.949-.961q0-3.054,0-6.109c0-.679.295-.97.979-.971q3.028,0,6.057,0c.708,0,.988.286.989,1q0,1.507,0,3.014m-6.4,2.392h4.768v-4.781h-4.768Z" transform="translate(-612.299 999.226)" fill="#05294f"/>
      <path id="Trazado_85977" data-name="Trazado 85977" d="M1146.828,477.468c-1.016,0-2.032,0-3.049,0-.661,0-.964-.3-.964-.945q0-3.075,0-6.149c0-.65.3-.946.963-.946q3.049,0,6.1,0c.677,0,.964.295.965.985q0,3.034,0,6.069c0,.7-.288.986-1,.987q-1.5,0-3.009,0m2.39-6.406h-4.767v4.777h4.767Z" transform="translate(-740.785 999.228)" fill="#05294f"/>
      <path id="Trazado_85978" data-name="Trazado 85978" d="M953.715,289.423h9.308a2.922,2.922,0,0,1,.4.011.8.8,0,0,1,0,1.585,2.962,2.962,0,0,1-.4.011h-18.7a2.926,2.926,0,0,1-.4-.011.8.8,0,0,1,0-1.585,2.966,2.966,0,0,1,.4-.011h9.388" transform="translate(-557.266 1164.753)" fill="#05294f"/>
      <path id="Trazado_85979" data-name="Trazado 85979" d="M904.919,290.249a.8.8,0,1,1-.8-.785.8.8,0,0,1,.8.785" transform="translate(-520.555 1164.714)" fill="#05294f"/>
    </g>
  </g>
</svg>
